<?xml version="1.0" encoding="utf-8" standalone="no"?>
<!DOCTYPE svg PUBLIC "-//W3C//DTD SVG 1.1//EN"
  "http://www.w3.org/Graphics/SVG/1.1/DTD/svg11.dtd">
<svg xmlns:xlink="http://www.w3.org/1999/xlink" width="64pt" height="48pt" viewBox="0 0 460.8 345.6" xmlns="http://www.w3.org/2000/svg" version="1.1">
 <metadata>
  <rdf:RDF xmlns:dc="http://purl.org/dc/elements/1.1/" xmlns:cc="http://creativecommons.org/ns#" xmlns:rdf="http://www.w3.org/1999/02/22-rdf-syntax-ns#">
   <cc:Work>
    <dc:type rdf:resource="http://purl.org/dc/dcmitype/StillImage"/>
    <dc:date>2024-02-17T18:40:11.346351</dc:date>
    <dc:format>image/svg+xml</dc:format>
    <dc:creator>
     <cc:Agent>
      <dc:title>Matplotlib v3.6.3, https://matplotlib.org/</dc:title>
     </cc:Agent>
    </dc:creator>
   </cc:Work>
  </rdf:RDF>
 </metadata>
 <defs>
  <style type="text/css">*{stroke-linejoin: round; stroke-linecap: butt}</style>
 </defs>
 <g id="figure_1">
  <g id="patch_1">
   <path d="M 0 345.6 
L 460.8 345.6 
L 460.8 0 
L 0 0 
z
" style="fill: #ffffff"/>
  </g>
  <g id="axes_1">
   <g id="patch_2">
    <path d="M 57.6 307.584 
L 414.72 307.584 
L 414.72 41.472 
L 57.6 41.472 
z
" style="fill: #ffffff"/>
   </g>
   <g id="matplotlib.axis_1">
    <g id="xtick_1">
     <g id="line2d_1">
      <path d="M 73.832727 307.584 
L 73.832727 41.472 
" clip-path="url(#pbcced29983)" style="fill: none; stroke: #b0b0b0; stroke-width: 0.8; stroke-linecap: square"/>
     </g>
     <g id="line2d_2">
      <defs>
       <path id="m11624a7783" d="M 0 0 
L 0 3.5 
" style="stroke: #000000; stroke-width: 0.8"/>
      </defs>
      <g>
       <use xlink:href="#m11624a7783" x="73.832727" y="307.584" style="stroke: #000000; stroke-width: 0.8"/>
      </g>
     </g>
     <g id="text_1">
      <!-- 0 -->
      <g transform="translate(70.651477 322.182437) scale(0.1 -0.1)">
       <defs>
        <path id="DejaVuSans-30" d="M 2034 4250 
Q 1547 4250 1301 3770 
Q 1056 3291 1056 2328 
Q 1056 1369 1301 889 
Q 1547 409 2034 409 
Q 2525 409 2770 889 
Q 3016 1369 3016 2328 
Q 3016 3291 2770 3770 
Q 2525 4250 2034 4250 
z
M 2034 4750 
Q 2819 4750 3233 4129 
Q 3647 3509 3647 2328 
Q 3647 1150 3233 529 
Q 2819 -91 2034 -91 
Q 1250 -91 836 529 
Q 422 1150 422 2328 
Q 422 3509 836 4129 
Q 1250 4750 2034 4750 
z
" transform="scale(0.015625)"/>
       </defs>
       <use xlink:href="#DejaVuSans-30"/>
      </g>
     </g>
    </g>
    <g id="xtick_2">
     <g id="line2d_3">
      <path d="M 138.77013 307.584 
L 138.77013 41.472 
" clip-path="url(#pbcced29983)" style="fill: none; stroke: #b0b0b0; stroke-width: 0.8; stroke-linecap: square"/>
     </g>
     <g id="line2d_4">
      <g>
       <use xlink:href="#m11624a7783" x="138.77013" y="307.584" style="stroke: #000000; stroke-width: 0.8"/>
      </g>
     </g>
     <g id="text_2">
      <!-- 2 -->
      <g transform="translate(135.58888 322.182437) scale(0.1 -0.1)">
       <defs>
        <path id="DejaVuSans-32" d="M 1228 531 
L 3431 531 
L 3431 0 
L 469 0 
L 469 531 
Q 828 903 1448 1529 
Q 2069 2156 2228 2338 
Q 2531 2678 2651 2914 
Q 2772 3150 2772 3378 
Q 2772 3750 2511 3984 
Q 2250 4219 1831 4219 
Q 1534 4219 1204 4116 
Q 875 4013 500 3803 
L 500 4441 
Q 881 4594 1212 4672 
Q 1544 4750 1819 4750 
Q 2544 4750 2975 4387 
Q 3406 4025 3406 3419 
Q 3406 3131 3298 2873 
Q 3191 2616 2906 2266 
Q 2828 2175 2409 1742 
Q 1991 1309 1228 531 
z
" transform="scale(0.015625)"/>
       </defs>
       <use xlink:href="#DejaVuSans-32"/>
      </g>
     </g>
    </g>
    <g id="xtick_3">
     <g id="line2d_5">
      <path d="M 203.707533 307.584 
L 203.707533 41.472 
" clip-path="url(#pbcced29983)" style="fill: none; stroke: #b0b0b0; stroke-width: 0.8; stroke-linecap: square"/>
     </g>
     <g id="line2d_6">
      <g>
       <use xlink:href="#m11624a7783" x="203.707533" y="307.584" style="stroke: #000000; stroke-width: 0.8"/>
      </g>
     </g>
     <g id="text_3">
      <!-- 4 -->
      <g transform="translate(200.526283 322.182437) scale(0.1 -0.1)">
       <defs>
        <path id="DejaVuSans-34" d="M 2419 4116 
L 825 1625 
L 2419 1625 
L 2419 4116 
z
M 2253 4666 
L 3047 4666 
L 3047 1625 
L 3713 1625 
L 3713 1100 
L 3047 1100 
L 3047 0 
L 2419 0 
L 2419 1100 
L 313 1100 
L 313 1709 
L 2253 4666 
z
" transform="scale(0.015625)"/>
       </defs>
       <use xlink:href="#DejaVuSans-34"/>
      </g>
     </g>
    </g>
    <g id="xtick_4">
     <g id="line2d_7">
      <path d="M 268.644936 307.584 
L 268.644936 41.472 
" clip-path="url(#pbcced29983)" style="fill: none; stroke: #b0b0b0; stroke-width: 0.8; stroke-linecap: square"/>
     </g>
     <g id="line2d_8">
      <g>
       <use xlink:href="#m11624a7783" x="268.644936" y="307.584" style="stroke: #000000; stroke-width: 0.8"/>
      </g>
     </g>
     <g id="text_4">
      <!-- 6 -->
      <g transform="translate(265.463686 322.182437) scale(0.1 -0.1)">
       <defs>
        <path id="DejaVuSans-36" d="M 2113 2584 
Q 1688 2584 1439 2293 
Q 1191 2003 1191 1497 
Q 1191 994 1439 701 
Q 1688 409 2113 409 
Q 2538 409 2786 701 
Q 3034 994 3034 1497 
Q 3034 2003 2786 2293 
Q 2538 2584 2113 2584 
z
M 3366 4563 
L 3366 3988 
Q 3128 4100 2886 4159 
Q 2644 4219 2406 4219 
Q 1781 4219 1451 3797 
Q 1122 3375 1075 2522 
Q 1259 2794 1537 2939 
Q 1816 3084 2150 3084 
Q 2853 3084 3261 2657 
Q 3669 2231 3669 1497 
Q 3669 778 3244 343 
Q 2819 -91 2113 -91 
Q 1303 -91 875 529 
Q 447 1150 447 2328 
Q 447 3434 972 4092 
Q 1497 4750 2381 4750 
Q 2619 4750 2861 4703 
Q 3103 4656 3366 4563 
z
" transform="scale(0.015625)"/>
       </defs>
       <use xlink:href="#DejaVuSans-36"/>
      </g>
     </g>
    </g>
    <g id="xtick_5">
     <g id="line2d_9">
      <path d="M 333.582339 307.584 
L 333.582339 41.472 
" clip-path="url(#pbcced29983)" style="fill: none; stroke: #b0b0b0; stroke-width: 0.8; stroke-linecap: square"/>
     </g>
     <g id="line2d_10">
      <g>
       <use xlink:href="#m11624a7783" x="333.582339" y="307.584" style="stroke: #000000; stroke-width: 0.8"/>
      </g>
     </g>
     <g id="text_5">
      <!-- 8 -->
      <g transform="translate(330.401089 322.182437) scale(0.1 -0.1)">
       <defs>
        <path id="DejaVuSans-38" d="M 2034 2216 
Q 1584 2216 1326 1975 
Q 1069 1734 1069 1313 
Q 1069 891 1326 650 
Q 1584 409 2034 409 
Q 2484 409 2743 651 
Q 3003 894 3003 1313 
Q 3003 1734 2745 1975 
Q 2488 2216 2034 2216 
z
M 1403 2484 
Q 997 2584 770 2862 
Q 544 3141 544 3541 
Q 544 4100 942 4425 
Q 1341 4750 2034 4750 
Q 2731 4750 3128 4425 
Q 3525 4100 3525 3541 
Q 3525 3141 3298 2862 
Q 3072 2584 2669 2484 
Q 3125 2378 3379 2068 
Q 3634 1759 3634 1313 
Q 3634 634 3220 271 
Q 2806 -91 2034 -91 
Q 1263 -91 848 271 
Q 434 634 434 1313 
Q 434 1759 690 2068 
Q 947 2378 1403 2484 
z
M 1172 3481 
Q 1172 3119 1398 2916 
Q 1625 2713 2034 2713 
Q 2441 2713 2670 2916 
Q 2900 3119 2900 3481 
Q 2900 3844 2670 4047 
Q 2441 4250 2034 4250 
Q 1625 4250 1398 4047 
Q 1172 3844 1172 3481 
z
" transform="scale(0.015625)"/>
       </defs>
       <use xlink:href="#DejaVuSans-38"/>
      </g>
     </g>
    </g>
    <g id="xtick_6">
     <g id="line2d_11">
      <path d="M 398.519741 307.584 
L 398.519741 41.472 
" clip-path="url(#pbcced29983)" style="fill: none; stroke: #b0b0b0; stroke-width: 0.8; stroke-linecap: square"/>
     </g>
     <g id="line2d_12">
      <g>
       <use xlink:href="#m11624a7783" x="398.519741" y="307.584" style="stroke: #000000; stroke-width: 0.8"/>
      </g>
     </g>
     <g id="text_6">
      <!-- 10 -->
      <g transform="translate(392.157241 322.182437) scale(0.1 -0.1)">
       <defs>
        <path id="DejaVuSans-31" d="M 794 531 
L 1825 531 
L 1825 4091 
L 703 3866 
L 703 4441 
L 1819 4666 
L 2450 4666 
L 2450 531 
L 3481 531 
L 3481 0 
L 794 0 
L 794 531 
z
" transform="scale(0.015625)"/>
       </defs>
       <use xlink:href="#DejaVuSans-31"/>
       <use xlink:href="#DejaVuSans-30" x="63.623047"/>
      </g>
     </g>
    </g>
   </g>
   <g id="matplotlib.axis_2">
    <g id="ytick_1">
     <g id="line2d_13">
      <path d="M 57.6 295.488003 
L 414.72 295.488003 
" clip-path="url(#pbcced29983)" style="fill: none; stroke: #b0b0b0; stroke-width: 0.8; stroke-linecap: square"/>
     </g>
     <g id="line2d_14">
      <defs>
       <path id="mb3ebc56104" d="M 0 0 
L -3.5 0 
" style="stroke: #000000; stroke-width: 0.8"/>
      </defs>
      <g>
       <use xlink:href="#mb3ebc56104" x="57.6" y="295.488003" style="stroke: #000000; stroke-width: 0.8"/>
      </g>
     </g>
     <g id="text_7">
      <!-- −1.00 -->
      <g transform="translate(19.954687 299.287221) scale(0.1 -0.1)">
       <defs>
        <path id="DejaVuSans-2212" d="M 678 2272 
L 4684 2272 
L 4684 1741 
L 678 1741 
L 678 2272 
z
" transform="scale(0.015625)"/>
        <path id="DejaVuSans-2e" d="M 684 794 
L 1344 794 
L 1344 0 
L 684 0 
L 684 794 
z
" transform="scale(0.015625)"/>
       </defs>
       <use xlink:href="#DejaVuSans-2212"/>
       <use xlink:href="#DejaVuSans-31" x="83.789062"/>
       <use xlink:href="#DejaVuSans-2e" x="147.412109"/>
       <use xlink:href="#DejaVuSans-30" x="179.199219"/>
       <use xlink:href="#DejaVuSans-30" x="242.822266"/>
      </g>
     </g>
    </g>
    <g id="ytick_2">
     <g id="line2d_15">
      <path d="M 57.6 265.248002 
L 414.72 265.248002 
" clip-path="url(#pbcced29983)" style="fill: none; stroke: #b0b0b0; stroke-width: 0.8; stroke-linecap: square"/>
     </g>
     <g id="line2d_16">
      <g>
       <use xlink:href="#mb3ebc56104" x="57.6" y="265.248002" style="stroke: #000000; stroke-width: 0.8"/>
      </g>
     </g>
     <g id="text_8">
      <!-- −0.75 -->
      <g transform="translate(19.954687 269.047221) scale(0.1 -0.1)">
       <defs>
        <path id="DejaVuSans-37" d="M 525 4666 
L 3525 4666 
L 3525 4397 
L 1831 0 
L 1172 0 
L 2766 4134 
L 525 4134 
L 525 4666 
z
" transform="scale(0.015625)"/>
        <path id="DejaVuSans-35" d="M 691 4666 
L 3169 4666 
L 3169 4134 
L 1269 4134 
L 1269 2991 
Q 1406 3038 1543 3061 
Q 1681 3084 1819 3084 
Q 2600 3084 3056 2656 
Q 3513 2228 3513 1497 
Q 3513 744 3044 326 
Q 2575 -91 1722 -91 
Q 1428 -91 1123 -41 
Q 819 9 494 109 
L 494 744 
Q 775 591 1075 516 
Q 1375 441 1709 441 
Q 2250 441 2565 725 
Q 2881 1009 2881 1497 
Q 2881 1984 2565 2268 
Q 2250 2553 1709 2553 
Q 1456 2553 1204 2497 
Q 953 2441 691 2322 
L 691 4666 
z
" transform="scale(0.015625)"/>
       </defs>
       <use xlink:href="#DejaVuSans-2212"/>
       <use xlink:href="#DejaVuSans-30" x="83.789062"/>
       <use xlink:href="#DejaVuSans-2e" x="147.412109"/>
       <use xlink:href="#DejaVuSans-37" x="179.199219"/>
       <use xlink:href="#DejaVuSans-35" x="242.822266"/>
      </g>
     </g>
    </g>
    <g id="ytick_3">
     <g id="line2d_17">
      <path d="M 57.6 235.008001 
L 414.72 235.008001 
" clip-path="url(#pbcced29983)" style="fill: none; stroke: #b0b0b0; stroke-width: 0.8; stroke-linecap: square"/>
     </g>
     <g id="line2d_18">
      <g>
       <use xlink:href="#mb3ebc56104" x="57.6" y="235.008001" style="stroke: #000000; stroke-width: 0.8"/>
      </g>
     </g>
     <g id="text_9">
      <!-- −0.50 -->
      <g transform="translate(19.954687 238.80722) scale(0.1 -0.1)">
       <use xlink:href="#DejaVuSans-2212"/>
       <use xlink:href="#DejaVuSans-30" x="83.789062"/>
       <use xlink:href="#DejaVuSans-2e" x="147.412109"/>
       <use xlink:href="#DejaVuSans-35" x="179.199219"/>
       <use xlink:href="#DejaVuSans-30" x="242.822266"/>
      </g>
     </g>
    </g>
    <g id="ytick_4">
     <g id="line2d_19">
      <path d="M 57.6 204.768 
L 414.72 204.768 
" clip-path="url(#pbcced29983)" style="fill: none; stroke: #b0b0b0; stroke-width: 0.8; stroke-linecap: square"/>
     </g>
     <g id="line2d_20">
      <g>
       <use xlink:href="#mb3ebc56104" x="57.6" y="204.768" style="stroke: #000000; stroke-width: 0.8"/>
      </g>
     </g>
     <g id="text_10">
      <!-- −0.25 -->
      <g transform="translate(19.954687 208.567219) scale(0.1 -0.1)">
       <use xlink:href="#DejaVuSans-2212"/>
       <use xlink:href="#DejaVuSans-30" x="83.789062"/>
       <use xlink:href="#DejaVuSans-2e" x="147.412109"/>
       <use xlink:href="#DejaVuSans-32" x="179.199219"/>
       <use xlink:href="#DejaVuSans-35" x="242.822266"/>
      </g>
     </g>
    </g>
    <g id="ytick_5">
     <g id="line2d_21">
      <path d="M 57.6 174.527999 
L 414.72 174.527999 
" clip-path="url(#pbcced29983)" style="fill: none; stroke: #b0b0b0; stroke-width: 0.8; stroke-linecap: square"/>
     </g>
     <g id="line2d_22">
      <g>
       <use xlink:href="#mb3ebc56104" x="57.6" y="174.527999" style="stroke: #000000; stroke-width: 0.8"/>
      </g>
     </g>
     <g id="text_11">
      <!-- 0.00 -->
      <g transform="translate(28.334375 178.327218) scale(0.1 -0.1)">
       <use xlink:href="#DejaVuSans-30"/>
       <use xlink:href="#DejaVuSans-2e" x="63.623047"/>
       <use xlink:href="#DejaVuSans-30" x="95.410156"/>
       <use xlink:href="#DejaVuSans-30" x="159.033203"/>
      </g>
     </g>
    </g>
    <g id="ytick_6">
     <g id="line2d_23">
      <path d="M 57.6 144.287998 
L 414.72 144.287998 
" clip-path="url(#pbcced29983)" style="fill: none; stroke: #b0b0b0; stroke-width: 0.8; stroke-linecap: square"/>
     </g>
     <g id="line2d_24">
      <g>
       <use xlink:href="#mb3ebc56104" x="57.6" y="144.287998" style="stroke: #000000; stroke-width: 0.8"/>
      </g>
     </g>
     <g id="text_12">
      <!-- 0.25 -->
      <g transform="translate(28.334375 148.087217) scale(0.1 -0.1)">
       <use xlink:href="#DejaVuSans-30"/>
       <use xlink:href="#DejaVuSans-2e" x="63.623047"/>
       <use xlink:href="#DejaVuSans-32" x="95.410156"/>
       <use xlink:href="#DejaVuSans-35" x="159.033203"/>
      </g>
     </g>
    </g>
    <g id="ytick_7">
     <g id="line2d_25">
      <path d="M 57.6 114.047997 
L 414.72 114.047997 
" clip-path="url(#pbcced29983)" style="fill: none; stroke: #b0b0b0; stroke-width: 0.8; stroke-linecap: square"/>
     </g>
     <g id="line2d_26">
      <g>
       <use xlink:href="#mb3ebc56104" x="57.6" y="114.047997" style="stroke: #000000; stroke-width: 0.8"/>
      </g>
     </g>
     <g id="text_13">
      <!-- 0.50 -->
      <g transform="translate(28.334375 117.847216) scale(0.1 -0.1)">
       <use xlink:href="#DejaVuSans-30"/>
       <use xlink:href="#DejaVuSans-2e" x="63.623047"/>
       <use xlink:href="#DejaVuSans-35" x="95.410156"/>
       <use xlink:href="#DejaVuSans-30" x="159.033203"/>
      </g>
     </g>
    </g>
    <g id="ytick_8">
     <g id="line2d_27">
      <path d="M 57.6 83.807996 
L 414.72 83.807996 
" clip-path="url(#pbcced29983)" style="fill: none; stroke: #b0b0b0; stroke-width: 0.8; stroke-linecap: square"/>
     </g>
     <g id="line2d_28">
      <g>
       <use xlink:href="#mb3ebc56104" x="57.6" y="83.807996" style="stroke: #000000; stroke-width: 0.8"/>
      </g>
     </g>
     <g id="text_14">
      <!-- 0.75 -->
      <g transform="translate(28.334375 87.607215) scale(0.1 -0.1)">
       <use xlink:href="#DejaVuSans-30"/>
       <use xlink:href="#DejaVuSans-2e" x="63.623047"/>
       <use xlink:href="#DejaVuSans-37" x="95.410156"/>
       <use xlink:href="#DejaVuSans-35" x="159.033203"/>
      </g>
     </g>
    </g>
    <g id="ytick_9">
     <g id="line2d_29">
      <path d="M 57.6 53.567995 
L 414.72 53.567995 
" clip-path="url(#pbcced29983)" style="fill: none; stroke: #b0b0b0; stroke-width: 0.8; stroke-linecap: square"/>
     </g>
     <g id="line2d_30">
      <g>
       <use xlink:href="#mb3ebc56104" x="57.6" y="53.567995" style="stroke: #000000; stroke-width: 0.8"/>
      </g>
     </g>
     <g id="text_15">
      <!-- 1.00 -->
      <g transform="translate(28.334375 57.367214) scale(0.1 -0.1)">
       <use xlink:href="#DejaVuSans-31"/>
       <use xlink:href="#DejaVuSans-2e" x="63.623047"/>
       <use xlink:href="#DejaVuSans-30" x="95.410156"/>
       <use xlink:href="#DejaVuSans-30" x="159.033203"/>
      </g>
     </g>
    </g>
   </g>
   <g id="line2d_31">
    <path d="M 73.832727 174.527999 
L 75.066538 174.418253 
L 76.332817 174.077388 
L 77.599097 173.505336 
L 78.930313 172.654715 
L 80.326468 171.488263 
L 81.787559 169.967096 
L 83.313588 168.050914 
L 84.937023 165.64657 
L 86.657864 162.688863 
L 88.476112 159.111283 
L 90.424234 154.771349 
L 92.502231 149.580376 
L 94.742571 143.363003 
L 97.177724 135.925479 
L 99.905095 126.851319 
L 103.151965 115.231572 
L 108.606706 94.704543 
L 112.567888 80.210398 
L 115.067978 71.876116 
L 117.048569 66.01782 
L 118.704473 61.786767 
L 120.100627 58.79029 
L 121.334437 56.642939 
L 122.405905 55.20308 
L 123.347497 54.293275 
L 124.159214 53.794901 
L 124.905995 53.58373 
L 125.620306 53.61427 
L 126.302149 53.864479 
L 127.01646 54.3671 
L 127.795709 55.20632 
L 128.639895 56.470238 
L 129.549019 58.258214 
L 130.52308 60.680902 
L 131.594547 63.969174 
L 132.76342 68.319192 
L 134.0297 73.945663 
L 135.393385 81.07607 
L 136.854477 89.940949 
L 138.445443 100.998783 
L 140.198753 114.791245 
L 142.179344 132.200334 
L 144.51709 154.805091 
L 147.861367 189.567656 
L 152.374516 236.203738 
L 154.484982 255.668559 
L 156.140885 268.987047 
L 157.53704 278.491541 
L 158.705913 285.020031 
L 159.712443 289.474084 
L 160.589097 292.399678 
L 161.303409 294.088195 
L 161.920314 295.022785 
L 162.407345 295.407647 
L 162.829438 295.483917 
L 163.219062 295.338986 
L 163.673624 294.905257 
L 164.193123 294.056604 
L 164.77756 292.647375 
L 165.459403 290.390685 
L 166.238652 287.00171 
L 167.115306 282.161322 
L 168.121836 275.28309 
L 169.258241 265.875881 
L 170.52452 253.46115 
L 171.985612 236.85045 
L 173.738922 214.217095 
L 176.076668 180.893899 
L 180.946973 110.783053 
L 182.602877 90.486935 
L 183.934094 76.719313 
L 185.03803 67.42833 
L 185.979622 61.239831 
L 186.758871 57.434917 
L 187.408245 55.228233 
L 187.960213 54.068098 
L 188.382306 53.635606 
L 188.706993 53.575261 
L 189.03168 53.754127 
L 189.388836 54.229153 
L 189.843397 55.257638 
L 190.395365 57.146534 
L 191.044739 60.265438 
L 191.79152 65.037729 
L 192.668174 72.219297 
L 193.674704 82.474356 
L 194.811109 96.438498 
L 196.174794 116.110205 
L 197.895635 144.449488 
L 201.077568 201.5492 
L 203.317909 239.607311 
L 204.779 260.866681 
L 205.947873 274.859589 
L 206.921934 284.034093 
L 207.733652 289.739793 
L 208.415495 293.066803 
L 208.967463 294.734355 
L 209.389556 295.373106 
L 209.681774 295.487184 
L 209.941524 295.36126 
L 210.266211 294.901413 
L 210.655835 293.904663 
L 211.142866 291.976296 
L 211.727302 288.667593 
L 212.409145 283.45842 
L 213.220862 275.42446 
L 214.162455 263.753806 
L 215.266391 247.170876 
L 216.630076 223.096286 
L 218.513261 185.462121 
L 222.247161 110.097231 
L 223.610847 87.411596 
L 224.682314 73.000414 
L 225.558969 63.914668 
L 226.305749 58.319777 
L 226.890186 55.411279 
L 227.344748 54.076702 
L 227.701903 53.609869 
L 227.961653 53.59561 
L 228.221403 53.856918 
L 228.54609 54.572219 
L 228.968183 56.147659 
L 229.487682 59.08271 
L 230.104587 63.973121 
L 230.851367 71.867916 
L 231.728022 83.732718 
L 232.767021 101.054616 
L 234.065769 126.783854 
L 235.916485 168.455304 
L 239.001011 237.895821 
L 240.299759 261.979047 
L 241.306289 276.859563 
L 242.150475 286.247169 
L 242.832318 291.535618 
L 243.384286 294.219281 
L 243.77391 295.223635 
L 244.066129 295.485139 
L 244.29341 295.394747 
L 244.553159 294.975473 
L 244.877846 293.97702 
L 245.299939 291.893648 
L 245.819439 288.12409 
L 246.468813 281.588289 
L 247.215593 271.685117 
L 248.124716 256.472414 
L 249.228652 234.022189 
L 250.722213 198.63249 
L 254.7808 99.891597 
L 255.884736 79.491425 
L 256.761391 67.030772 
L 257.475702 59.717285 
L 258.060139 55.792815 
L 258.514701 54.081168 
L 258.839388 53.593676 
L 259.0342 53.598282 
L 259.261481 53.88649 
L 259.553699 54.705086 
L 259.943324 56.578451 
L 260.430354 60.163791 
L 261.014791 66.246703 
L 261.729102 76.196574 
L 262.573289 91.226173 
L 263.644756 114.644591 
L 265.073379 151.27286 
L 268.774811 248.546036 
L 269.846278 269.889028 
L 270.690464 282.646005 
L 271.372307 289.916247 
L 271.924275 293.650068 
L 272.346368 295.150022 
L 272.606117 295.477357 
L 272.80093 295.422489 
L 273.02821 295.0321 
L 273.320429 294.013775 
L 273.710053 291.756764 
L 274.197084 287.510781 
L 274.813989 279.93116 
L 275.560769 267.662928 
L 276.469893 248.660374 
L 277.606297 219.890645 
L 279.457013 166.41039 
L 281.502542 109.149661 
L 282.606477 84.051356 
L 283.483132 68.792835 
L 284.164975 60.350892 
L 284.716943 55.929049 
L 285.139036 54.076146 
L 285.431254 53.587677 
L 285.593598 53.599776 
L 285.78841 53.882441 
L 286.04816 54.714421 
L 286.405315 56.704162 
L 286.859877 60.634883 
L 287.411845 67.453386 
L 288.093688 78.802024 
L 288.937874 96.877531 
L 290.009341 125.025953 
L 291.665245 175.339764 
L 293.840648 240.248703 
L 294.912115 265.885943 
L 295.756301 281.150514 
L 296.405675 289.355186 
L 296.925175 293.494353 
L 297.314799 295.119221 
L 297.574549 295.483243 
L 297.736892 295.416266 
L 297.931704 295.036185 
L 298.223923 293.853703 
L 298.613547 291.14193 
L 299.100578 285.962487 
L 299.685014 277.22665 
L 300.431794 262.368223 
L 301.340918 239.466757 
L 302.574729 202.24612 
L 305.983942 96.115337 
L 306.925535 74.998027 
L 307.639846 63.383982 
L 308.224283 57.108813 
L 308.678845 54.372928 
L 308.971063 53.636166 
L 309.165875 53.594796 
L 309.328219 53.836219 
L 309.587968 54.744099 
L 309.945124 57.035173 
L 310.399686 61.669317 
L 310.951654 69.791643 
L 311.633496 83.34247 
L 312.477683 104.819996 
L 313.614087 139.922782 
L 317.315519 259.249789 
L 318.159705 277.688168 
L 318.841548 288.132575 
L 319.361047 293.109269 
L 319.750672 295.056173 
L 320.010421 295.483794 
L 320.172765 295.394541 
L 320.367577 294.924762 
L 320.659795 293.479967 
L 321.04942 290.185418 
L 321.53645 283.922722 
L 322.153356 272.747099 
L 322.900136 254.848078 
L 323.874197 225.658551 
L 325.400226 172.133807 
L 327.315879 106.585607 
L 328.28994 80.433501 
L 329.03672 65.749229 
L 329.621157 58.101492 
L 330.075719 54.683729 
L 330.400406 53.649408 
L 330.562749 53.578176 
L 330.725093 53.805462 
L 330.952374 54.625041 
L 331.277061 56.805229 
L 331.699154 61.386467 
L 332.218653 69.638189 
L 332.868027 83.718407 
L 333.712213 107.422052 
L 334.848618 146.328951 
L 337.900676 254.274224 
L 338.744862 275.387974 
L 339.426705 287.337276 
L 339.946204 292.965785 
L 340.335828 295.092513 
L 340.563109 295.483472 
L 340.692984 295.423543 
L 340.887796 294.946698 
L 341.147546 293.590333 
L 341.504702 290.393916 
L 341.959264 284.151152 
L 342.5437 272.735031 
L 343.258012 254.131662 
L 344.199604 223.33805 
L 345.79057 162.586683 
L 347.414005 103.584774 
L 348.323129 78.021465 
L 349.004972 64.265117 
L 349.55694 57.106933 
L 349.946564 54.357882 
L 350.206314 53.618199 
L 350.368657 53.60485 
L 350.531001 53.937804 
L 350.758282 54.984883 
L 351.082969 57.647507 
L 351.505062 63.118951 
L 352.05703 73.544097 
L 352.738872 91.068208 
L 353.615527 119.795478 
L 354.979213 172.877376 
L 356.862398 244.768463 
L 357.771521 271.258999 
L 358.453364 285.319801 
L 358.972863 292.11963 
L 359.362488 294.834102 
L 359.622237 295.473323 
L 359.752112 295.43828 
L 359.914455 295.06131 
L 360.174205 293.689948 
L 360.531361 290.276196 
L 360.985923 283.441496 
L 361.570359 270.797599 
L 362.284671 250.130303 
L 363.258732 214.829137 
L 366.700414 83.273792 
L 367.414725 66.485242 
L 367.966693 58.048117 
L 368.388787 54.510556 
L 368.681005 53.597981 
L 368.81088 53.60108 
L 368.973223 53.959589 
L 369.200504 55.122213 
L 369.525191 58.108358 
L 369.947284 64.265898 
L 370.499252 75.993385 
L 371.181095 95.622494 
L 372.090218 128.772497 
L 373.940934 207.035727 
L 375.174745 253.774262 
L 375.986463 276.724478 
L 376.603368 288.481042 
L 377.05793 293.579725 
L 377.382617 295.26711 
L 377.577429 295.481871 
L 377.707304 295.290851 
L 377.902116 294.503231 
L 378.194334 292.201068 
L 378.583959 287.077612 
L 379.070989 277.512122 
L 379.687895 260.787385 
L 380.499612 232.265717 
L 381.765891 178.611843 
L 383.584139 102.718145 
L 384.428325 76.297367 
L 385.077699 62.304597 
L 385.56473 56.016871 
L 385.921885 53.853938 
L 386.116697 53.568833 
L 386.246572 53.731984 
L 386.441385 54.50647 
L 386.733603 56.853047 
L 387.123227 62.152017 
L 387.610258 72.109808 
L 388.227163 89.561904 
L 389.038881 119.292839 
L 390.370097 177.795738 
L 391.993532 246.875015 
L 392.837719 273.736593 
L 393.454624 287.114661 
L 393.909186 293.053758 
L 394.233873 295.129438 
L 394.428685 295.487597 
L 394.55856 295.354137 
L 394.753372 294.595517 
L 395.04559 292.208578 
L 395.435215 286.739458 
L 395.922245 276.396452 
L 396.539151 258.228372 
L 397.383337 225.946007 
L 398.487273 176.047911 
L 398.487273 176.047911 
" clip-path="url(#pbcced29983)" style="fill: none; stroke: #1f77b4; stroke-width: 5; stroke-linecap: square"/>
   </g>
   <g id="patch_3">
    <path d="M 57.6 307.584 
L 57.6 41.472 
" style="fill: none; stroke: #000000; stroke-width: 0.8; stroke-linejoin: miter; stroke-linecap: square"/>
   </g>
   <g id="patch_4">
    <path d="M 414.72 307.584 
L 414.72 41.472 
" style="fill: none; stroke: #000000; stroke-width: 0.8; stroke-linejoin: miter; stroke-linecap: square"/>
   </g>
   <g id="patch_5">
    <path d="M 57.6 307.584 
L 414.72 307.584 
" style="fill: none; stroke: #000000; stroke-width: 0.8; stroke-linejoin: miter; stroke-linecap: square"/>
   </g>
   <g id="patch_6">
    <path d="M 57.6 41.472 
L 414.72 41.472 
" style="fill: none; stroke: #000000; stroke-width: 0.8; stroke-linejoin: miter; stroke-linecap: square"/>
   </g>
  </g>
 </g>
 <defs>
  <clipPath id="pbcced29983">
   <rect x="57.6" y="41.472" width="357.12" height="266.112"/>
  </clipPath>
 </defs>
</svg>
