<?xml version="1.0" standalone="no"?>
<!DOCTYPE svg PUBLIC "-//W3C//DTD SVG 20010904//EN"
 "http://www.w3.org/TR/2001/REC-SVG-20010904/DTD/svg10.dtd">
<svg version="1.0" xmlns="http://www.w3.org/2000/svg"
 width="64.000000pt" height="48.000000pt" viewBox="0 0 64.000000 48.000000"
 preserveAspectRatio="xMidYMid meet">

<g transform="translate(0.000000,48.000000) scale(0.100000,-0.100000)"
fill="#000000" stroke="none">
<path d="M90 240 l0 -102 60 4 c81 6 105 29 104 99 -1 69 -24 91 -104 97 l-60
4 0 -102z m118 48 c16 -16 16 -80 0 -96 -7 -7 -27 -12 -45 -12 l-33 0 0 60 0
60 33 0 c18 0 38 -5 45 -12z"/>
<path d="M297 240 c-18 -74 -21 -100 -12 -100 8 0 22 40 38 100 18 74 21 100
12 100 -8 0 -22 -40 -38 -100z"/>
<path d="M415 328 c-3 -7 -18 -52 -34 -100 -28 -83 -29 -88 -11 -88 13 0 22 9
26 25 5 22 12 25 49 25 37 0 44 -3 49 -25 4 -16 13 -25 25 -25 18 0 17 6 -13
98 -30 88 -35 97 -59 100 -16 2 -29 -2 -32 -10z m55 -95 c0 -7 -11 -13 -25
-13 -28 0 -30 4 -13 51 l12 34 12 -30 c7 -17 13 -36 14 -42z"/>
</g>
</svg>
