<?xml version="1.0" standalone="no"?>
<!DOCTYPE svg PUBLIC "-//W3C//DTD SVG 20010904//EN"
 "http://www.w3.org/TR/2001/REC-SVG-20010904/DTD/svg10.dtd">
<svg version="1.0" xmlns="http://www.w3.org/2000/svg"
 width="64.000000pt" height="48.000000pt" viewBox="0 0 64.000000 48.000000"
 preserveAspectRatio="xMidYMid meet">

<g transform="translate(0.000000,48.000000) scale(0.100000,-0.100000)"
fill="#000000" stroke="none">
<path d="M100 240 c0 -47 2 -50 25 -50 34 0 53 39 37 75 -8 17 -20 25 -37 25
-23 0 -25 -3 -25 -50z m50 0 c0 -29 -4 -40 -15 -40 -11 0 -15 11 -15 40 0 29
4 40 15 40 11 0 15 -11 15 -40z"/>
<path d="M190 240 c0 -27 5 -50 10 -50 6 0 10 11 10 25 0 16 6 25 15 25 9 0
15 -9 15 -25 0 -14 5 -25 10 -25 6 0 10 23 10 50 0 28 -4 50 -10 50 -5 0 -10
-9 -10 -20 0 -11 -7 -20 -15 -20 -8 0 -15 9 -15 20 0 11 -4 20 -10 20 -5 0
-10 -22 -10 -50z"/>
<path d="M283 283 c13 -3 17 -15 17 -49 0 -24 5 -44 10 -44 6 0 10 20 10 44 0
34 4 46 18 49 9 3 -3 5 -28 5 -25 0 -37 -2 -27 -5z"/>
<path d="M372 265 c8 -19 8 -31 0 -50 -6 -14 -8 -25 -3 -25 5 0 12 8 16 18 6
16 7 16 19 0 19 -26 27 -22 14 7 -8 19 -8 31 0 50 6 14 8 25 3 25 -5 0 -12 -8
-16 -17 -6 -17 -7 -17 -19 0 -19 25 -27 21 -14 -8z"/>
<path d="M462 265 c8 -19 8 -31 0 -50 -6 -14 -8 -25 -3 -25 5 0 12 8 16 18 6
16 7 16 19 0 19 -26 27 -22 14 7 -8 19 -8 31 0 50 6 14 8 25 3 25 -5 0 -12 -8
-16 -17 -6 -17 -7 -17 -19 0 -19 25 -27 21 -14 -8z"/>
</g>
</svg>
