<?xml version="1.0" encoding="utf-8" standalone="no"?>
<!DOCTYPE svg PUBLIC "-//W3C//DTD SVG 1.1//EN"
  "http://www.w3.org/Graphics/SVG/1.1/DTD/svg11.dtd">
<!-- Created with matplotlib (https://matplotlib.org/) -->
<svg height="48pt" version="1.1" viewBox="0 0 460.8 345.6" width="64pt" xmlns="http://www.w3.org/2000/svg" xmlns:xlink="http://www.w3.org/1999/xlink">
 <metadata>
  <rdf:RDF xmlns:cc="http://creativecommons.org/ns#" xmlns:dc="http://purl.org/dc/elements/1.1/" xmlns:rdf="http://www.w3.org/1999/02/22-rdf-syntax-ns#">
   <cc:Work>
    <dc:type rdf:resource="http://purl.org/dc/dcmitype/StillImage"/>
    <dc:date>2021-03-17T20:27:58.926661</dc:date>
    <dc:format>image/svg+xml</dc:format>
    <dc:creator>
     <cc:Agent>
      <dc:title>Matplotlib v3.3.4, https://matplotlib.org/</dc:title>
     </cc:Agent>
    </dc:creator>
   </cc:Work>
  </rdf:RDF>
 </metadata>
 <defs>
  <style type="text/css">*{stroke-linecap:butt;stroke-linejoin:round;}</style>
 </defs>
 <g id="figure_1">
  <g id="patch_1">
   <path d="M 0 345.6 
L 460.8 345.6 
L 460.8 0 
L 0 0 
z
" style="fill:#ffffff;"/>
  </g>
  <g id="axes_1">
   <g id="patch_2">
    <path d="M 57.6 307.584 
L 414.72 307.584 
L 414.72 41.472 
L 57.6 41.472 
z
" style="fill:#ffffff;"/>
   </g>
   <g id="matplotlib.axis_1">
    <g id="xtick_1">
     <g id="line2d_1">
      <path clip-path="url(#pe3d32bfe28)" d="M 73.832727 307.584 
L 73.832727 41.472 
" style="fill:none;stroke:#b0b0b0;stroke-linecap:square;stroke-width:0.8;"/>
     </g>
     <g id="line2d_2">
      <defs>
       <path d="M 0 0 
L 0 3.5 
" id="m23a0420fa3" style="stroke:#000000;stroke-width:0.8;"/>
      </defs>
      <g>
       <use style="stroke:#000000;stroke-width:0.8;" x="73.832727" xlink:href="#m23a0420fa3" y="307.584"/>
      </g>
     </g>
     <g id="text_1">
      <!-- 0 -->
      <g transform="translate(70.651477 322.182437)scale(0.1 -0.1)">
       <defs>
        <path d="M 31.78125 66.40625 
Q 24.171875 66.40625 20.328125 58.90625 
Q 16.5 51.421875 16.5 36.375 
Q 16.5 21.390625 20.328125 13.890625 
Q 24.171875 6.390625 31.78125 6.390625 
Q 39.453125 6.390625 43.28125 13.890625 
Q 47.125 21.390625 47.125 36.375 
Q 47.125 51.421875 43.28125 58.90625 
Q 39.453125 66.40625 31.78125 66.40625 
z
M 31.78125 74.21875 
Q 44.046875 74.21875 50.515625 64.515625 
Q 56.984375 54.828125 56.984375 36.375 
Q 56.984375 17.96875 50.515625 8.265625 
Q 44.046875 -1.421875 31.78125 -1.421875 
Q 19.53125 -1.421875 13.0625 8.265625 
Q 6.59375 17.96875 6.59375 36.375 
Q 6.59375 54.828125 13.0625 64.515625 
Q 19.53125 74.21875 31.78125 74.21875 
z
" id="DejaVuSans-48"/>
       </defs>
       <use xlink:href="#DejaVuSans-48"/>
      </g>
     </g>
    </g>
    <g id="xtick_2">
     <g id="line2d_3">
      <path clip-path="url(#pe3d32bfe28)" d="M 140.088757 307.584 
L 140.088757 41.472 
" style="fill:none;stroke:#b0b0b0;stroke-linecap:square;stroke-width:0.8;"/>
     </g>
     <g id="line2d_4">
      <g>
       <use style="stroke:#000000;stroke-width:0.8;" x="140.088757" xlink:href="#m23a0420fa3" y="307.584"/>
      </g>
     </g>
     <g id="text_2">
      <!-- 10 -->
      <g transform="translate(133.726257 322.182437)scale(0.1 -0.1)">
       <defs>
        <path d="M 12.40625 8.296875 
L 28.515625 8.296875 
L 28.515625 63.921875 
L 10.984375 60.40625 
L 10.984375 69.390625 
L 28.421875 72.90625 
L 38.28125 72.90625 
L 38.28125 8.296875 
L 54.390625 8.296875 
L 54.390625 0 
L 12.40625 0 
z
" id="DejaVuSans-49"/>
       </defs>
       <use xlink:href="#DejaVuSans-49"/>
       <use x="63.623047" xlink:href="#DejaVuSans-48"/>
      </g>
     </g>
    </g>
    <g id="xtick_3">
     <g id="line2d_5">
      <path clip-path="url(#pe3d32bfe28)" d="M 206.344787 307.584 
L 206.344787 41.472 
" style="fill:none;stroke:#b0b0b0;stroke-linecap:square;stroke-width:0.8;"/>
     </g>
     <g id="line2d_6">
      <g>
       <use style="stroke:#000000;stroke-width:0.8;" x="206.344787" xlink:href="#m23a0420fa3" y="307.584"/>
      </g>
     </g>
     <g id="text_3">
      <!-- 20 -->
      <g transform="translate(199.982287 322.182437)scale(0.1 -0.1)">
       <defs>
        <path d="M 19.1875 8.296875 
L 53.609375 8.296875 
L 53.609375 0 
L 7.328125 0 
L 7.328125 8.296875 
Q 12.9375 14.109375 22.625 23.890625 
Q 32.328125 33.6875 34.8125 36.53125 
Q 39.546875 41.84375 41.421875 45.53125 
Q 43.3125 49.21875 43.3125 52.78125 
Q 43.3125 58.59375 39.234375 62.25 
Q 35.15625 65.921875 28.609375 65.921875 
Q 23.96875 65.921875 18.8125 64.3125 
Q 13.671875 62.703125 7.8125 59.421875 
L 7.8125 69.390625 
Q 13.765625 71.78125 18.9375 73 
Q 24.125 74.21875 28.421875 74.21875 
Q 39.75 74.21875 46.484375 68.546875 
Q 53.21875 62.890625 53.21875 53.421875 
Q 53.21875 48.921875 51.53125 44.890625 
Q 49.859375 40.875 45.40625 35.40625 
Q 44.1875 33.984375 37.640625 27.21875 
Q 31.109375 20.453125 19.1875 8.296875 
z
" id="DejaVuSans-50"/>
       </defs>
       <use xlink:href="#DejaVuSans-50"/>
       <use x="63.623047" xlink:href="#DejaVuSans-48"/>
      </g>
     </g>
    </g>
    <g id="xtick_4">
     <g id="line2d_7">
      <path clip-path="url(#pe3d32bfe28)" d="M 272.600816 307.584 
L 272.600816 41.472 
" style="fill:none;stroke:#b0b0b0;stroke-linecap:square;stroke-width:0.8;"/>
     </g>
     <g id="line2d_8">
      <g>
       <use style="stroke:#000000;stroke-width:0.8;" x="272.600816" xlink:href="#m23a0420fa3" y="307.584"/>
      </g>
     </g>
     <g id="text_4">
      <!-- 30 -->
      <g transform="translate(266.238316 322.182437)scale(0.1 -0.1)">
       <defs>
        <path d="M 40.578125 39.3125 
Q 47.65625 37.796875 51.625 33 
Q 55.609375 28.21875 55.609375 21.1875 
Q 55.609375 10.40625 48.1875 4.484375 
Q 40.765625 -1.421875 27.09375 -1.421875 
Q 22.515625 -1.421875 17.65625 -0.515625 
Q 12.796875 0.390625 7.625 2.203125 
L 7.625 11.71875 
Q 11.71875 9.328125 16.59375 8.109375 
Q 21.484375 6.890625 26.8125 6.890625 
Q 36.078125 6.890625 40.9375 10.546875 
Q 45.796875 14.203125 45.796875 21.1875 
Q 45.796875 27.640625 41.28125 31.265625 
Q 36.765625 34.90625 28.71875 34.90625 
L 20.21875 34.90625 
L 20.21875 43.015625 
L 29.109375 43.015625 
Q 36.375 43.015625 40.234375 45.921875 
Q 44.09375 48.828125 44.09375 54.296875 
Q 44.09375 59.90625 40.109375 62.90625 
Q 36.140625 65.921875 28.71875 65.921875 
Q 24.65625 65.921875 20.015625 65.03125 
Q 15.375 64.15625 9.8125 62.3125 
L 9.8125 71.09375 
Q 15.4375 72.65625 20.34375 73.4375 
Q 25.25 74.21875 29.59375 74.21875 
Q 40.828125 74.21875 47.359375 69.109375 
Q 53.90625 64.015625 53.90625 55.328125 
Q 53.90625 49.265625 50.4375 45.09375 
Q 46.96875 40.921875 40.578125 39.3125 
z
" id="DejaVuSans-51"/>
       </defs>
       <use xlink:href="#DejaVuSans-51"/>
       <use x="63.623047" xlink:href="#DejaVuSans-48"/>
      </g>
     </g>
    </g>
    <g id="xtick_5">
     <g id="line2d_9">
      <path clip-path="url(#pe3d32bfe28)" d="M 338.856846 307.584 
L 338.856846 41.472 
" style="fill:none;stroke:#b0b0b0;stroke-linecap:square;stroke-width:0.8;"/>
     </g>
     <g id="line2d_10">
      <g>
       <use style="stroke:#000000;stroke-width:0.8;" x="338.856846" xlink:href="#m23a0420fa3" y="307.584"/>
      </g>
     </g>
     <g id="text_5">
      <!-- 40 -->
      <g transform="translate(332.494346 322.182437)scale(0.1 -0.1)">
       <defs>
        <path d="M 37.796875 64.3125 
L 12.890625 25.390625 
L 37.796875 25.390625 
z
M 35.203125 72.90625 
L 47.609375 72.90625 
L 47.609375 25.390625 
L 58.015625 25.390625 
L 58.015625 17.1875 
L 47.609375 17.1875 
L 47.609375 0 
L 37.796875 0 
L 37.796875 17.1875 
L 4.890625 17.1875 
L 4.890625 26.703125 
z
" id="DejaVuSans-52"/>
       </defs>
       <use xlink:href="#DejaVuSans-52"/>
       <use x="63.623047" xlink:href="#DejaVuSans-48"/>
      </g>
     </g>
    </g>
    <g id="xtick_6">
     <g id="line2d_11">
      <path clip-path="url(#pe3d32bfe28)" d="M 405.112876 307.584 
L 405.112876 41.472 
" style="fill:none;stroke:#b0b0b0;stroke-linecap:square;stroke-width:0.8;"/>
     </g>
     <g id="line2d_12">
      <g>
       <use style="stroke:#000000;stroke-width:0.8;" x="405.112876" xlink:href="#m23a0420fa3" y="307.584"/>
      </g>
     </g>
     <g id="text_6">
      <!-- 50 -->
      <g transform="translate(398.750376 322.182437)scale(0.1 -0.1)">
       <defs>
        <path d="M 10.796875 72.90625 
L 49.515625 72.90625 
L 49.515625 64.59375 
L 19.828125 64.59375 
L 19.828125 46.734375 
Q 21.96875 47.46875 24.109375 47.828125 
Q 26.265625 48.1875 28.421875 48.1875 
Q 40.625 48.1875 47.75 41.5 
Q 54.890625 34.8125 54.890625 23.390625 
Q 54.890625 11.625 47.5625 5.09375 
Q 40.234375 -1.421875 26.90625 -1.421875 
Q 22.3125 -1.421875 17.546875 -0.640625 
Q 12.796875 0.140625 7.71875 1.703125 
L 7.71875 11.625 
Q 12.109375 9.234375 16.796875 8.0625 
Q 21.484375 6.890625 26.703125 6.890625 
Q 35.15625 6.890625 40.078125 11.328125 
Q 45.015625 15.765625 45.015625 23.390625 
Q 45.015625 31 40.078125 35.4375 
Q 35.15625 39.890625 26.703125 39.890625 
Q 22.75 39.890625 18.8125 39.015625 
Q 14.890625 38.140625 10.796875 36.28125 
z
" id="DejaVuSans-53"/>
       </defs>
       <use xlink:href="#DejaVuSans-53"/>
       <use x="63.623047" xlink:href="#DejaVuSans-48"/>
      </g>
     </g>
    </g>
   </g>
   <g id="matplotlib.axis_2">
    <g id="ytick_1">
     <g id="line2d_13">
      <path clip-path="url(#pe3d32bfe28)" d="M 57.6 273.495273 
L 414.72 273.495273 
" style="fill:none;stroke:#b0b0b0;stroke-linecap:square;stroke-width:0.8;"/>
     </g>
     <g id="line2d_14">
      <defs>
       <path d="M 0 0 
L -3.5 0 
" id="m45e187e369" style="stroke:#000000;stroke-width:0.8;"/>
      </defs>
      <g>
       <use style="stroke:#000000;stroke-width:0.8;" x="57.6" xlink:href="#m45e187e369" y="273.495273"/>
      </g>
     </g>
     <g id="text_7">
      <!-- −1 -->
      <g transform="translate(35.857813 277.294491)scale(0.1 -0.1)">
       <defs>
        <path d="M 10.59375 35.5 
L 73.1875 35.5 
L 73.1875 27.203125 
L 10.59375 27.203125 
z
" id="DejaVuSans-8722"/>
       </defs>
       <use xlink:href="#DejaVuSans-8722"/>
       <use x="83.789062" xlink:href="#DejaVuSans-49"/>
      </g>
     </g>
    </g>
    <g id="ytick_2">
     <g id="line2d_15">
      <path clip-path="url(#pe3d32bfe28)" d="M 57.6 229.509818 
L 414.72 229.509818 
" style="fill:none;stroke:#b0b0b0;stroke-linecap:square;stroke-width:0.8;"/>
     </g>
     <g id="line2d_16">
      <g>
       <use style="stroke:#000000;stroke-width:0.8;" x="57.6" xlink:href="#m45e187e369" y="229.509818"/>
      </g>
     </g>
     <g id="text_8">
      <!-- 0 -->
      <g transform="translate(44.2375 233.309037)scale(0.1 -0.1)">
       <use xlink:href="#DejaVuSans-48"/>
      </g>
     </g>
    </g>
    <g id="ytick_3">
     <g id="line2d_17">
      <path clip-path="url(#pe3d32bfe28)" d="M 57.6 185.524364 
L 414.72 185.524364 
" style="fill:none;stroke:#b0b0b0;stroke-linecap:square;stroke-width:0.8;"/>
     </g>
     <g id="line2d_18">
      <g>
       <use style="stroke:#000000;stroke-width:0.8;" x="57.6" xlink:href="#m45e187e369" y="185.524364"/>
      </g>
     </g>
     <g id="text_9">
      <!-- 1 -->
      <g transform="translate(44.2375 189.323582)scale(0.1 -0.1)">
       <use xlink:href="#DejaVuSans-49"/>
      </g>
     </g>
    </g>
    <g id="ytick_4">
     <g id="line2d_19">
      <path clip-path="url(#pe3d32bfe28)" d="M 57.6 141.538909 
L 414.72 141.538909 
" style="fill:none;stroke:#b0b0b0;stroke-linecap:square;stroke-width:0.8;"/>
     </g>
     <g id="line2d_20">
      <g>
       <use style="stroke:#000000;stroke-width:0.8;" x="57.6" xlink:href="#m45e187e369" y="141.538909"/>
      </g>
     </g>
     <g id="text_10">
      <!-- 2 -->
      <g transform="translate(44.2375 145.338128)scale(0.1 -0.1)">
       <use xlink:href="#DejaVuSans-50"/>
      </g>
     </g>
    </g>
    <g id="ytick_5">
     <g id="line2d_21">
      <path clip-path="url(#pe3d32bfe28)" d="M 57.6 97.553455 
L 414.72 97.553455 
" style="fill:none;stroke:#b0b0b0;stroke-linecap:square;stroke-width:0.8;"/>
     </g>
     <g id="line2d_22">
      <g>
       <use style="stroke:#000000;stroke-width:0.8;" x="57.6" xlink:href="#m45e187e369" y="97.553455"/>
      </g>
     </g>
     <g id="text_11">
      <!-- 3 -->
      <g transform="translate(44.2375 101.352673)scale(0.1 -0.1)">
       <use xlink:href="#DejaVuSans-51"/>
      </g>
     </g>
    </g>
    <g id="ytick_6">
     <g id="line2d_23">
      <path clip-path="url(#pe3d32bfe28)" d="M 57.6 53.568 
L 414.72 53.568 
" style="fill:none;stroke:#b0b0b0;stroke-linecap:square;stroke-width:0.8;"/>
     </g>
     <g id="line2d_24">
      <g>
       <use style="stroke:#000000;stroke-width:0.8;" x="57.6" xlink:href="#m45e187e369" y="53.568"/>
      </g>
     </g>
     <g id="text_12">
      <!-- 4 -->
      <g transform="translate(44.2375 57.367219)scale(0.1 -0.1)">
       <use xlink:href="#DejaVuSans-52"/>
      </g>
     </g>
    </g>
   </g>
   <g id="line2d_25">
    <path clip-path="url(#pe3d32bfe28)" d="M 73.832727 119.546182 
L 73.832727 119.546182 
L 80.45833 119.546182 
L 80.45833 119.546182 
L 87.083933 119.546182 
L 87.083933 119.546182 
L 93.709536 119.546182 
L 93.709536 119.546182 
L 100.335139 119.546182 
L 100.335139 119.546182 
L 106.960742 119.546182 
L 106.960742 163.531636 
L 113.586345 163.531636 
L 113.586345 119.546182 
L 120.211948 119.546182 
L 120.211948 163.531636 
L 126.837551 163.531636 
L 126.837551 119.546182 
L 133.463154 119.546182 
L 133.463154 163.531636 
L 140.088757 163.531636 
L 140.088757 119.546182 
L 146.71436 119.546182 
L 146.71436 163.531636 
L 153.339963 163.531636 
L 153.339963 119.546182 
L 159.965566 119.546182 
L 159.965566 163.531636 
L 166.591169 163.531636 
L 166.591169 119.546182 
L 173.216772 119.546182 
L 173.216772 163.531636 
L 179.842375 163.531636 
L 179.842375 119.546182 
L 186.467978 119.546182 
L 186.467978 163.531636 
L 193.093581 163.531636 
L 193.093581 119.546182 
L 199.719184 119.546182 
L 199.719184 163.531636 
L 206.344787 163.531636 
L 206.344787 119.546182 
L 212.97039 119.546182 
L 212.97039 119.546182 
L 219.595993 119.546182 
L 219.595993 119.546182 
L 226.221596 119.546182 
L 226.221596 119.546182 
L 232.847199 119.546182 
L 232.847199 119.546182 
L 239.472801 119.546182 
L 239.472801 119.546182 
L 246.098404 119.546182 
L 246.098404 119.546182 
L 252.724007 119.546182 
L 252.724007 119.546182 
L 259.34961 119.546182 
L 259.34961 119.546182 
L 265.975213 119.546182 
L 265.975213 163.531636 
L 272.600816 163.531636 
L 272.600816 119.546182 
L 279.226419 119.546182 
L 279.226419 163.531636 
L 285.852022 163.531636 
L 285.852022 119.546182 
L 292.477625 119.546182 
L 292.477625 163.531636 
L 299.103228 163.531636 
L 299.103228 119.546182 
L 305.728831 119.546182 
L 305.728831 163.531636 
L 312.354434 163.531636 
L 312.354434 119.546182 
L 318.980037 119.546182 
L 318.980037 163.531636 
L 325.60564 163.531636 
L 325.60564 119.546182 
L 332.231243 119.546182 
L 332.231243 163.531636 
L 338.856846 163.531636 
L 338.856846 119.546182 
L 345.482449 119.546182 
L 345.482449 163.531636 
L 352.108052 163.531636 
L 352.108052 119.546182 
L 358.733655 119.546182 
L 358.733655 163.531636 
L 365.359258 163.531636 
L 365.359258 119.546182 
L 371.984861 119.546182 
L 371.984861 119.546182 
L 378.610464 119.546182 
L 378.610464 119.546182 
L 385.236067 119.546182 
L 385.236067 119.546182 
L 391.86167 119.546182 
L 391.86167 119.546182 
L 398.487273 119.546182 
L 398.487273 119.546182 
" style="fill:none;stroke:#0000ff;stroke-linecap:square;stroke-width:5;"/>
   </g>
   <g id="line2d_26">
    <path clip-path="url(#pe3d32bfe28)" d="M 73.832727 53.568 
L 73.832727 53.568 
L 80.45833 53.568 
L 80.45833 97.553455 
L 87.083933 97.553455 
L 87.083933 97.553455 
L 93.709536 97.553455 
L 93.709536 97.553455 
L 100.335139 97.553455 
L 100.335139 97.553455 
L 106.960742 97.553455 
L 106.960742 97.553455 
L 113.586345 97.553455 
L 113.586345 97.553455 
L 120.211948 97.553455 
L 120.211948 97.553455 
L 126.837551 97.553455 
L 126.837551 97.553455 
L 133.463154 97.553455 
L 133.463154 97.553455 
L 140.088757 97.553455 
L 140.088757 97.553455 
L 146.71436 97.553455 
L 146.71436 97.553455 
L 153.339963 97.553455 
L 153.339963 97.553455 
L 159.965566 97.553455 
L 159.965566 97.553455 
L 166.591169 97.553455 
L 166.591169 97.553455 
L 173.216772 97.553455 
L 173.216772 97.553455 
L 179.842375 97.553455 
L 179.842375 97.553455 
L 186.467978 97.553455 
L 186.467978 97.553455 
L 193.093581 97.553455 
L 193.093581 97.553455 
L 199.719184 97.553455 
L 199.719184 97.553455 
L 206.344787 97.553455 
L 206.344787 97.553455 
L 212.97039 97.553455 
L 212.97039 97.553455 
L 219.595993 97.553455 
L 219.595993 97.553455 
L 226.221596 97.553455 
L 226.221596 97.553455 
L 232.847199 97.553455 
L 232.847199 97.553455 
L 239.472801 97.553455 
L 239.472801 97.553455 
L 246.098404 97.553455 
L 246.098404 97.553455 
L 252.724007 97.553455 
L 252.724007 97.553455 
L 259.34961 97.553455 
L 259.34961 97.553455 
L 265.975213 97.553455 
L 265.975213 97.553455 
L 272.600816 97.553455 
L 272.600816 97.553455 
L 279.226419 97.553455 
L 279.226419 97.553455 
L 285.852022 97.553455 
L 285.852022 97.553455 
L 292.477625 97.553455 
L 292.477625 97.553455 
L 299.103228 97.553455 
L 299.103228 97.553455 
L 305.728831 97.553455 
L 305.728831 97.553455 
L 312.354434 97.553455 
L 312.354434 97.553455 
L 318.980037 97.553455 
L 318.980037 97.553455 
L 325.60564 97.553455 
L 325.60564 97.553455 
L 332.231243 97.553455 
L 332.231243 97.553455 
L 338.856846 97.553455 
L 338.856846 97.553455 
L 345.482449 97.553455 
L 345.482449 97.553455 
L 352.108052 97.553455 
L 352.108052 97.553455 
L 358.733655 97.553455 
L 358.733655 97.553455 
L 365.359258 97.553455 
L 365.359258 97.553455 
L 371.984861 97.553455 
L 371.984861 97.553455 
L 378.610464 97.553455 
L 378.610464 97.553455 
L 385.236067 97.553455 
L 385.236067 97.553455 
L 391.86167 97.553455 
L 391.86167 53.568 
L 398.487273 53.568 
L 398.487273 53.568 
" style="fill:none;stroke:#0000ff;stroke-linecap:square;stroke-width:5;"/>
   </g>
   <g id="line2d_27">
    <path clip-path="url(#pe3d32bfe28)" d="M 73.832727 185.524364 
L 73.832727 185.524364 
L 80.45833 185.524364 
L 80.45833 185.524364 
L 87.083933 185.524364 
L 87.083933 185.524364 
L 93.709536 185.524364 
L 93.709536 185.524364 
L 100.335139 185.524364 
L 100.335139 185.524364 
L 106.960742 185.524364 
L 106.960742 185.524364 
L 113.586345 185.524364 
L 113.586345 185.524364 
L 120.211948 185.524364 
L 120.211948 185.524364 
L 126.837551 185.524364 
L 126.837551 185.524364 
L 133.463154 185.524364 
L 133.463154 229.509818 
L 140.088757 229.509818 
L 140.088757 185.524364 
L 146.71436 185.524364 
L 146.71436 229.509818 
L 153.339963 229.509818 
L 153.339963 185.524364 
L 159.965566 185.524364 
L 159.965566 229.509818 
L 166.591169 229.509818 
L 166.591169 185.524364 
L 173.216772 185.524364 
L 173.216772 229.509818 
L 179.842375 229.509818 
L 179.842375 185.524364 
L 186.467978 185.524364 
L 186.467978 185.524364 
L 193.093581 185.524364 
L 193.093581 185.524364 
L 199.719184 185.524364 
L 199.719184 229.509818 
L 206.344787 229.509818 
L 206.344787 185.524364 
L 212.97039 185.524364 
L 212.97039 185.524364 
L 219.595993 185.524364 
L 219.595993 185.524364 
L 226.221596 185.524364 
L 226.221596 185.524364 
L 232.847199 185.524364 
L 232.847199 185.524364 
L 239.472801 185.524364 
L 239.472801 185.524364 
L 246.098404 185.524364 
L 246.098404 185.524364 
L 252.724007 185.524364 
L 252.724007 185.524364 
L 259.34961 185.524364 
L 259.34961 185.524364 
L 265.975213 185.524364 
L 265.975213 185.524364 
L 272.600816 185.524364 
L 272.600816 185.524364 
L 279.226419 185.524364 
L 279.226419 185.524364 
L 285.852022 185.524364 
L 285.852022 185.524364 
L 292.477625 185.524364 
L 292.477625 185.524364 
L 299.103228 185.524364 
L 299.103228 185.524364 
L 305.728831 185.524364 
L 305.728831 185.524364 
L 312.354434 185.524364 
L 312.354434 185.524364 
L 318.980037 185.524364 
L 318.980037 185.524364 
L 325.60564 185.524364 
L 325.60564 185.524364 
L 332.231243 185.524364 
L 332.231243 185.524364 
L 338.856846 185.524364 
L 338.856846 185.524364 
L 345.482449 185.524364 
L 345.482449 185.524364 
L 352.108052 185.524364 
L 352.108052 185.524364 
L 358.733655 185.524364 
L 358.733655 185.524364 
L 365.359258 185.524364 
L 365.359258 185.524364 
L 371.984861 185.524364 
L 371.984861 185.524364 
L 378.610464 185.524364 
L 378.610464 185.524364 
L 385.236067 185.524364 
L 385.236067 185.524364 
L 391.86167 185.524364 
L 391.86167 185.524364 
L 398.487273 185.524364 
L 398.487273 185.524364 
" style="fill:none;stroke:#0000ff;stroke-linecap:square;stroke-width:5;"/>
   </g>
   <g id="line2d_28">
    <path clip-path="url(#pe3d32bfe28)" d="M 73.832727 251.502545 
L 73.832727 251.502545 
L 80.45833 251.502545 
L 80.45833 251.502545 
L 87.083933 251.502545 
L 87.083933 251.502545 
L 93.709536 251.502545 
L 93.709536 251.502545 
L 100.335139 251.502545 
L 100.335139 251.502545 
L 106.960742 251.502545 
L 106.960742 251.502545 
L 113.586345 251.502545 
L 113.586345 251.502545 
L 120.211948 251.502545 
L 120.211948 251.502545 
L 126.837551 251.502545 
L 126.837551 251.502545 
L 133.463154 251.502545 
L 133.463154 251.502545 
L 140.088757 251.502545 
L 140.088757 251.502545 
L 146.71436 251.502545 
L 146.71436 251.502545 
L 153.339963 251.502545 
L 153.339963 251.502545 
L 159.965566 251.502545 
L 159.965566 251.502545 
L 166.591169 251.502545 
L 166.591169 251.502545 
L 173.216772 251.502545 
L 173.216772 251.502545 
L 179.842375 251.502545 
L 179.842375 251.502545 
L 186.467978 251.502545 
L 186.467978 251.502545 
L 193.093581 251.502545 
L 193.093581 251.502545 
L 199.719184 251.502545 
L 199.719184 251.502545 
L 206.344787 251.502545 
L 206.344787 251.502545 
L 212.97039 251.502545 
L 212.97039 251.502545 
L 219.595993 251.502545 
L 219.595993 251.502545 
L 226.221596 251.502545 
L 226.221596 251.502545 
L 232.847199 251.502545 
L 232.847199 251.502545 
L 239.472801 251.502545 
L 239.472801 251.502545 
L 246.098404 251.502545 
L 246.098404 251.502545 
L 252.724007 251.502545 
L 252.724007 251.502545 
L 259.34961 251.502545 
L 259.34961 251.502545 
L 265.975213 251.502545 
L 265.975213 251.502545 
L 272.600816 251.502545 
L 272.600816 251.502545 
L 279.226419 251.502545 
L 279.226419 251.502545 
L 285.852022 251.502545 
L 285.852022 251.502545 
L 292.477625 251.502545 
L 292.477625 295.488 
L 299.103228 295.488 
L 299.103228 251.502545 
L 305.728831 251.502545 
L 305.728831 295.488 
L 312.354434 295.488 
L 312.354434 251.502545 
L 318.980037 251.502545 
L 318.980037 295.488 
L 325.60564 295.488 
L 325.60564 251.502545 
L 332.231243 251.502545 
L 332.231243 295.488 
L 338.856846 295.488 
L 338.856846 251.502545 
L 345.482449 251.502545 
L 345.482449 251.502545 
L 352.108052 251.502545 
L 352.108052 251.502545 
L 358.733655 251.502545 
L 358.733655 295.488 
L 365.359258 295.488 
L 365.359258 251.502545 
L 371.984861 251.502545 
L 371.984861 251.502545 
L 378.610464 251.502545 
L 378.610464 251.502545 
L 385.236067 251.502545 
L 385.236067 251.502545 
L 391.86167 251.502545 
L 391.86167 251.502545 
L 398.487273 251.502545 
L 398.487273 251.502545 
" style="fill:none;stroke:#0000ff;stroke-linecap:square;stroke-width:5;"/>
   </g>
   <g id="patch_3">
    <path d="M 57.6 307.584 
L 57.6 41.472 
" style="fill:none;stroke:#000000;stroke-linecap:square;stroke-linejoin:miter;stroke-width:0.8;"/>
   </g>
   <g id="patch_4">
    <path d="M 414.72 307.584 
L 414.72 41.472 
" style="fill:none;stroke:#000000;stroke-linecap:square;stroke-linejoin:miter;stroke-width:0.8;"/>
   </g>
   <g id="patch_5">
    <path d="M 57.6 307.584 
L 414.72 307.584 
" style="fill:none;stroke:#000000;stroke-linecap:square;stroke-linejoin:miter;stroke-width:0.8;"/>
   </g>
   <g id="patch_6">
    <path d="M 57.6 41.472 
L 414.72 41.472 
" style="fill:none;stroke:#000000;stroke-linecap:square;stroke-linejoin:miter;stroke-width:0.8;"/>
   </g>
  </g>
 </g>
 <defs>
  <clipPath id="pe3d32bfe28">
   <rect height="266.112" width="357.12" x="57.6" y="41.472"/>
  </clipPath>
 </defs>
</svg>
