<?xml version="1.0" encoding="utf-8" standalone="no"?>
<!DOCTYPE svg PUBLIC "-//W3C//DTD SVG 1.1//EN"
  "http://www.w3.org/Graphics/SVG/1.1/DTD/svg11.dtd">
<!-- Created with matplotlib (https://matplotlib.org/) -->
<svg height="48pt" version="1.1" viewBox="0 0 460.8 345.6" width="64pt" xmlns="http://www.w3.org/2000/svg" xmlns:xlink="http://www.w3.org/1999/xlink">
 <metadata>
  <rdf:RDF xmlns:cc="http://creativecommons.org/ns#" xmlns:dc="http://purl.org/dc/elements/1.1/" xmlns:rdf="http://www.w3.org/1999/02/22-rdf-syntax-ns#">
   <cc:Work>
    <dc:type rdf:resource="http://purl.org/dc/dcmitype/StillImage"/>
    <dc:date>2020-11-17T19:54:16.671311</dc:date>
    <dc:format>image/svg+xml</dc:format>
    <dc:creator>
     <cc:Agent>
      <dc:title>Matplotlib v3.3.2, https://matplotlib.org/</dc:title>
     </cc:Agent>
    </dc:creator>
   </cc:Work>
  </rdf:RDF>
 </metadata>
 <defs>
  <style type="text/css">*{stroke-linecap:butt;stroke-linejoin:round;}</style>
 </defs>
 <g id="figure_1">
  <g id="patch_1">
   <path d="M 0 345.6 
L 460.8 345.6 
L 460.8 0 
L 0 0 
z
" style="fill:#ffffff;"/>
  </g>
  <g id="axes_1">
   <g id="line2d_1">
    <path clip-path="url(#p2bc19ddd20)" d="M 182.050909 102.382545 
L 181.93545 100.344998 
L 181.59055 98.333537 
L 181.020626 96.373915 
L 180.232974 94.491221 
L 179.237678 92.70956 
L 178.047481 91.051741 
L 176.677622 89.53899 
L 175.145637 88.190674 
L 173.471142 87.024056 
L 171.675575 86.054072 
L 169.781924 85.293141 
L 167.814433 84.751004 
L 165.798293 84.434602 
L 163.759316 84.347988 
L 161.723606 84.492269 
L 159.717227 84.865597 
L 157.765866 85.463195 
L 155.894507 86.27741 
L 154.127108 87.297818 
L 152.486298 88.511355 
L 150.993083 89.902484 
L 149.666581 91.453395 
L 148.523775 93.144231 
L 147.579297 94.953345 
L 146.845238 96.857574 
L 146.330997 98.832539 
L 146.043158 100.852955 
L 145.985405 102.892954 
L 146.158479 104.926418 
L 146.560162 106.927313 
L 147.185313 108.870022 
L 148.025928 110.729672 
L 149.071244 112.482454 
L 150.307879 114.105928 
L 151.719999 115.579308 
L 153.289525 116.88373 
L 154.996364 118.002495 
L 156.818661 118.921278 
L 158.733087 119.628316 
L 160.715132 120.114558 
L 162.739418 120.373778 
L 164.78003 120.402658 
L 166.810842 120.200826 
L 168.805853 119.770869 
L 170.73952 119.118289 
L 172.587089 118.251443 
L 174.324903 117.181428 
L 175.930715 115.921944 
L 177.383965 114.489116 
L 178.666046 112.901288 
L 179.760545 111.178789 
L 180.65345 109.343672 
L 181.333327 107.419432 
L 181.791472 105.430706 
L 182.022021 103.402954 
L 182.050909 102.382545 
L 182.050909 102.382545 
" style="fill:none;stroke:#000000;stroke-linecap:square;stroke-width:5;"/>
   </g>
   <g id="line2d_2">
    <path clip-path="url(#p2bc19ddd20)" d="M 182.050909 246.673455 
L 181.93545 244.635907 
L 181.59055 242.624446 
L 181.020626 240.664824 
L 180.232974 238.78213 
L 179.237678 237.000469 
L 178.047481 235.34265 
L 176.677622 233.829899 
L 175.145637 232.481583 
L 173.471142 231.314965 
L 171.675575 230.344981 
L 169.781924 229.58405 
L 167.814433 229.041913 
L 165.798293 228.725512 
L 163.759316 228.638897 
L 161.723606 228.783178 
L 159.717227 229.156507 
L 157.765866 229.754104 
L 155.894507 230.568319 
L 154.127108 231.588727 
L 152.486298 232.802264 
L 150.993083 234.193393 
L 149.666581 235.744304 
L 148.523775 237.43514 
L 147.579297 239.244254 
L 146.845238 241.148483 
L 146.330997 243.123448 
L 146.043158 245.143864 
L 145.985405 247.183863 
L 146.158479 249.217327 
L 146.560162 251.218222 
L 147.185313 253.160931 
L 148.025928 255.020581 
L 149.071244 256.773363 
L 150.307879 258.396837 
L 151.719999 259.870217 
L 153.289525 261.174639 
L 154.996364 262.293404 
L 156.818661 263.212187 
L 158.733087 263.919225 
L 160.715132 264.405467 
L 162.739418 264.664688 
L 164.78003 264.693567 
L 166.810842 264.491736 
L 168.805853 264.061778 
L 170.73952 263.409198 
L 172.587089 262.542352 
L 174.324903 261.472337 
L 175.930715 260.212853 
L 177.383965 258.780025 
L 178.666046 257.192197 
L 179.760545 255.469698 
L 180.65345 253.634581 
L 181.333327 251.710341 
L 181.791472 249.721615 
L 182.022021 247.693863 
L 182.050909 246.673455 
L 182.050909 246.673455 
" style="fill:none;stroke:#000000;stroke-linecap:square;stroke-width:5;"/>
   </g>
   <g id="line2d_3">
    <path clip-path="url(#p2bc19ddd20)" d="M 326.341818 174.528 
L 326.226359 172.490452 
L 325.881459 170.478991 
L 325.311535 168.51937 
L 324.523883 166.636676 
L 323.528587 164.855014 
L 322.33839 163.197196 
L 320.968531 161.684445 
L 319.436546 160.336129 
L 317.762051 159.169511 
L 315.966484 158.199527 
L 314.072833 157.438595 
L 312.105342 156.896458 
L 310.089202 156.580057 
L 308.050225 156.493442 
L 306.014515 156.637723 
L 304.008136 157.011052 
L 302.056775 157.60865 
L 300.185416 158.422865 
L 298.418017 159.443273 
L 296.777207 160.65681 
L 295.283992 162.047939 
L 293.95749 163.59885 
L 292.814684 165.289686 
L 291.870206 167.098799 
L 291.136148 169.003029 
L 290.621907 170.977994 
L 290.334067 172.99841 
L 290.276314 175.038408 
L 290.449388 177.071873 
L 290.851071 179.072768 
L 291.476222 181.015477 
L 292.316837 182.875127 
L 293.362153 184.627909 
L 294.598788 186.251382 
L 296.010908 187.724762 
L 297.580434 189.029185 
L 299.287273 190.147949 
L 301.10957 191.066732 
L 303.023997 191.773771 
L 305.006041 192.260013 
L 307.030328 192.519233 
L 309.07094 192.548112 
L 311.101751 192.346281 
L 313.096762 191.916323 
L 315.03043 191.263744 
L 316.877998 190.396898 
L 318.615812 189.326883 
L 320.221624 188.067399 
L 321.674874 186.63457 
L 322.956955 185.046742 
L 324.051455 183.324243 
L 324.944359 181.489127 
L 325.624236 179.564887 
L 326.082382 177.57616 
L 326.31293 175.548408 
L 326.341818 174.528 
L 326.341818 174.528 
" style="fill:none;stroke:#000000;stroke-linecap:square;stroke-width:5;"/>
   </g>
   <g id="line2d_4">
    <path clip-path="url(#p2bc19ddd20)" d="M 73.832727 102.382545 
L 145.978182 102.382545 
" style="fill:none;stroke:#000000;stroke-linecap:square;stroke-width:5;"/>
   </g>
   <g id="line2d_5">
    <path clip-path="url(#p2bc19ddd20)" d="M 73.832727 174.528 
L 145.978182 174.528 
" style="fill:none;stroke:#000000;stroke-linecap:square;stroke-width:5;"/>
   </g>
   <g id="line2d_6">
    <path clip-path="url(#p2bc19ddd20)" d="M 326.341818 174.528 
L 398.487273 174.528 
" style="fill:none;stroke:#000000;stroke-linecap:square;stroke-width:5;"/>
   </g>
   <g id="line2d_7">
    <path clip-path="url(#p2bc19ddd20)" d="M 182.050909 102.382545 
L 290.269091 174.528 
" style="fill:none;stroke:#000000;stroke-linecap:square;stroke-width:5;"/>
   </g>
  </g>
 </g>
 <defs>
  <clipPath id="p2bc19ddd20">
   <rect height="266.112" width="357.12" x="57.6" y="41.472"/>
  </clipPath>
 </defs>
</svg>
